<svg width="12" height="7" viewBox="0 0 12 7" fill="none" xmlns="http://www.w3.org/2000/svg">
<path d="M11.8014 0.69409C11.8014 0.69409 11.8033 0.656318 11.8071 0.580775C11.8109 0.505232 11.7599 0.410804 11.6541 0.297489C11.5484 0.184175 11.418 0.125629 11.2632 0.121852C11.1083 0.118075 10.978 0.169066 10.8722 0.274827L5.99972 4.88672L1.1272 0.274827C1.02144 0.169066 0.891128 0.118075 0.736265 0.121852C0.581402 0.125629 0.45109 0.184175 0.34533 0.297489C0.23957 0.410804 0.190467 0.543004 0.198021 0.69409C0.205575 0.845176 0.262233 0.973599 0.367993 1.07936L5.61445 6.05386C5.66733 6.09919 5.72777 6.13507 5.79575 6.16151C5.86374 6.18795 5.93173 6.20117 5.99972 6.20117C6.06771 6.20117 6.13381 6.18795 6.19802 6.16151C6.26223 6.13507 6.32456 6.09919 6.38499 6.05386L11.6314 1.07936C11.7372 0.973599 11.7939 0.845176 11.8014 0.69409Z" fill="#0D0D0D"/>
</svg>
